<?xml version="1.0" encoding="UTF-8" standalone="no"?>
<!DOCTYPE svg PUBLIC "-//W3C//DTD SVG 1.1//EN" "http://www.w3.org/Graphics/SVG/1.1/DTD/svg11.dtd">
<svg version="1.1" xmlns="http://www.w3.org/2000/svg" xmlns:xlink="http://www.w3.org/1999/xlink" preserveAspectRatio="xMidYMid meet" viewBox="0 0 500 500" width="500" height="500"><defs><path d="M49.25 261.9C35.91 261.9 25.1 275.14 25.1 291.48C25.1 307.81 34.89 319.01 49.25 321.05C61.22 323.68 121.09 336.84 228.86 360.51L390.24 269.69" id="d5bzZkW89I"></path><path d="M49.25 202.75C35.91 202.75 25.1 215.99 25.1 232.32C25.1 248.66 34.89 259.85 49.25 261.9C61.22 264.53 121.09 277.68 228.86 301.36L390.24 210.54" id="a1ObpJ63mR"></path><path d="M49.25 143.6C35.91 143.6 25.1 156.84 25.1 173.17C25.1 189.51 34.89 200.7 49.25 202.75C55.09 204.03 84.29 210.45 136.86 221.99M189.3 233.51L228.86 242.2L390.24 151.38" id="cR1rfNFVJ"></path><path d="M210.62 52.78L44.9 143.6L228.86 183.05L390.24 92.23L210.62 52.78Z" id="l1ma6xPKeQ"></path><path d="M223 87.55L181.41 111.09L248.21 125.76L289.8 102.22L223 87.55Z" id="j1GgVCu3J"></path><path d="M150.7 191.53L150.7 251.6L164.09 243.28L178.93 259.56L178.93 196.24L150.7 191.53Z" id="aN8m5c3m"></path><path d="M239.88 272.9C239.88 237.14 268.97 208.05 304.73 208.05C309.84 208.05 313.99 212.2 313.99 217.32C313.99 222.43 309.84 226.58 304.73 226.58C279.19 226.58 258.41 247.36 258.41 272.9C258.41 278.02 254.26 282.17 249.14 282.17C244.03 282.17 239.88 278.02 239.88 272.9Z" id="bh2mIkuyO"></path><path d="M390.68 327.46C395.54 319.82 399.46 311.59 402.12 302.96C405.11 293.26 406.63 283.15 406.63 272.9C406.63 216.71 360.91 171 304.73 171C248.54 171 202.82 216.71 202.82 272.9C202.82 329.09 248.54 374.8 304.73 374.8C311.4 374.8 318.08 374.15 324.59 372.87C329.6 371.88 332.87 367.01 331.88 361.98C330.89 356.97 326.02 353.66 321 354.69C315.67 355.74 310.2 356.28 304.73 356.28C258.76 356.28 221.35 318.87 221.35 272.9C221.35 226.93 258.76 189.53 304.73 189.53C350.7 189.53 388.1 226.93 388.1 272.9C388.1 281.29 386.86 289.57 384.41 297.5C379.28 314.13 368.75 329.09 354.74 339.61C354.61 339.71 354.55 339.86 354.43 339.96C354.29 340.08 354.12 340.11 353.99 340.23C353.63 340.57 353.47 341 353.18 341.37C352.8 341.85 352.41 342.29 352.14 342.82C351.86 343.37 351.72 343.93 351.55 344.51C351.39 345.08 351.21 345.62 351.16 346.2C351.11 346.8 351.19 347.37 351.25 347.97C351.31 348.55 351.35 349.12 351.53 349.7C351.71 350.29 352.02 350.81 352.32 351.36C352.54 351.76 352.62 352.2 352.9 352.58C353.01 352.72 353.17 352.78 353.27 352.91C353.38 353.04 353.41 353.2 353.53 353.33C361.54 361.91 425.61 430.6 433.62 439.18C438.14 443.7 444.07 445.95 450 445.95C455.93 445.95 461.86 443.7 466.38 439.18C475.41 430.15 475.41 415.46 466.52 406.57C451.35 390.75 398.26 335.37 390.68 327.46ZM446.95 426.31C439.62 418.46 381.03 355.65 373.71 347.8C375.62 346.03 377.47 344.2 379.24 342.29C386.64 350.01 445.87 411.81 453.28 419.53C455.08 421.34 455.08 424.27 453.28 426.08C451.47 427.88 448.54 427.89 446.95 426.31Z" id="d8tP7a3gK"></path></defs><g><g><g><use xlink:href="#d5bzZkW89I" opacity="1" fill="#000000" fill-opacity="0"></use><g><use xlink:href="#d5bzZkW89I" opacity="1" fill-opacity="0" stroke="#333333" stroke-width="3" stroke-opacity="1"></use></g></g><g><use xlink:href="#a1ObpJ63mR" opacity="1" fill="#000000" fill-opacity="0"></use><g><use xlink:href="#a1ObpJ63mR" opacity="1" fill-opacity="0" stroke="#333333" stroke-width="3" stroke-opacity="1"></use></g></g><g><use xlink:href="#cR1rfNFVJ" opacity="1" fill="#2b2d2f" fill-opacity="0"></use><g><use xlink:href="#cR1rfNFVJ" opacity="1" fill-opacity="0" stroke="#333333" stroke-width="3" stroke-opacity="1"></use></g></g><g><use xlink:href="#l1ma6xPKeQ" opacity="1" fill="#2b2d2f" fill-opacity="1"></use><g><use xlink:href="#l1ma6xPKeQ" opacity="1" fill-opacity="0" stroke="#2b2d2f" stroke-width="11.33" stroke-opacity="1"></use></g></g><g><use xlink:href="#j1GgVCu3J" opacity="1" fill="#842df7" fill-opacity="1"></use><g><use xlink:href="#j1GgVCu3J" opacity="1" fill-opacity="0" stroke="#333333" stroke-width="1.12" stroke-opacity="1"></use></g></g><g><use xlink:href="#aN8m5c3m" opacity="1" fill="#842df7" fill-opacity="1"></use><g><use xlink:href="#aN8m5c3m" opacity="1" fill-opacity="0" stroke="#000000" stroke-width="0.26" stroke-opacity="0"></use></g></g><g><use xlink:href="#bh2mIkuyO" opacity="1" fill="#842df7" fill-opacity="1"></use><g><use xlink:href="#bh2mIkuyO" opacity="1" fill-opacity="0" stroke="#000000" stroke-width="1" stroke-opacity="0"></use></g></g><g><use xlink:href="#d8tP7a3gK" opacity="1" fill="#2b2d2f" fill-opacity="1"></use><g><use xlink:href="#d8tP7a3gK" opacity="1" fill-opacity="0" stroke="#000000" stroke-width="1" stroke-opacity="0"></use></g></g></g></g></svg>